<svg width="19" height="19" viewBox="0 0 19 19" fill="none" xmlns="http://www.w3.org/2000/svg">
<path fill-rule="evenodd" clip-rule="evenodd" d="M0 3C0 2.20435 0.316071 1.44129 0.87868 0.87868C1.44129 0.316071 2.20435 0 3 0H16C16.7956 0 17.5587 0.316071 18.1213 0.87868C18.6839 1.44129 19 2.20435 19 3V16C19 16.7956 18.6839 17.5587 18.1213 18.1213C17.5587 18.6839 16.7956 19 16 19H3C2.20435 19 1.44129 18.6839 0.87868 18.1213C0.316071 17.5587 0 16.7956 0 16V3ZM17 3V4C17 4.53043 16.7893 5.03914 16.4142 5.41421C16.0391 5.78929 15.5304 6 15 6C14.4696 6 13.9609 5.78929 13.5858 5.41421C13.2107 5.03914 13 4.53043 13 4C13 3.73478 12.8946 3.48043 12.7071 3.29289C12.5196 3.10536 12.2652 3 12 3C11.7348 3 11.4804 3.10536 11.2929 3.29289C11.1054 3.48043 11 3.73478 11 4V4.5C11 4.89782 10.842 5.27936 10.5607 5.56066C10.2794 5.84196 9.89782 6 9.5 6C9.10218 6 8.72064 5.84196 8.43934 5.56066C8.15804 5.27936 8 4.89782 8 4.5V4C8 3.73478 7.89464 3.48043 7.70711 3.29289C7.51957 3.10536 7.26522 3 7 3C6.73478 3 6.48043 3.10536 6.29289 3.29289C6.10536 3.48043 6 3.73478 6 4C6 4.53043 5.78929 5.03914 5.41421 5.41421C5.03914 5.78929 4.53043 6 4 6C3.46957 6 2.96086 5.78929 2.58579 5.41421C2.21071 5.03914 2 4.53043 2 4V3C2 2.73478 2.10536 2.48043 2.29289 2.29289C2.48043 2.10536 2.73478 2 3 2H16C16.2652 2 16.5196 2.10536 16.7071 2.29289C16.8946 2.48043 17 2.73478 17 3ZM15 8C13.88 8 12.867 7.54 12.14 6.797C11.8119 7.17502 11.4063 7.47808 10.9508 7.68564C10.4953 7.8932 10.0006 8.00041 9.5 8C8.99944 8.00041 8.50465 7.8932 8.04916 7.68564C7.59366 7.47808 7.18811 7.17502 6.86 6.797C6.48784 7.17844 6.04301 7.48142 5.55179 7.68804C5.06057 7.89467 4.53291 8.00074 4 8C3.29782 8.00112 2.60784 7.81655 2 7.465V16C2 16.2652 2.10536 16.5196 2.29289 16.7071C2.48043 16.8946 2.73478 17 3 17H6V13C6 12.2044 6.31607 11.4413 6.87868 10.8787C7.44129 10.3161 8.20435 10 9 10H10C10.7956 10 11.5587 10.3161 12.1213 10.8787C12.6839 11.4413 13 12.2044 13 13V17H16C16.2652 17 16.5196 16.8946 16.7071 16.7071C16.8946 16.5196 17 16.2652 17 16V7.465C16.3922 7.8166 15.7022 8.00117 15 8ZM11 17V13C11 12.7348 10.8946 12.4804 10.7071 12.2929C10.5196 12.1054 10.2652 12 10 12H9C8.73478 12 8.48043 12.1054 8.29289 12.2929C8.10536 12.4804 8 12.7348 8 13V17H11Z" fill="white"/>
</svg>
