<svg width="176" height="320" viewBox="0 0 176 320" fill="none" xmlns="http://www.w3.org/2000/svg">
<path fill-rule="evenodd" clip-rule="evenodd" d="M151.752 2.96036C180.677 -6.32683 213.23 19.1066 231.826 43.1199C249.447 65.875 233.43 101.389 247.44 126.527C261.101 151.039 302.821 154.397 309.086 181.747C315.07 207.869 290.222 230.713 276.594 253.791C263.086 276.664 254.573 307.494 229.549 316.432C204.045 325.541 176.971 308.249 151.752 298.379C133.308 291.16 121.858 271.579 102.645 266.764C72.4235 259.19 33.3581 284.588 10.8417 263.064C-9.10832 243.992 6.22187 208.305 13.7108 181.747C20.0641 159.216 34.8996 140.841 50.2835 123.191C63.4722 108.06 83.7876 101.835 96.7333 86.4957C118.611 60.5721 119.447 13.333 151.752 2.96036Z" stroke="white"/>
</svg>
