<svg width="314" height="186" viewBox="0 0 314 186" fill="none" xmlns="http://www.w3.org/2000/svg">
<path fill-rule="evenodd" clip-rule="evenodd" d="M96.4018 163.633C68.596 153.295 55.5031 122.509 28.0875 111.269C-7.13808 96.8279 -57.075 117.597 -82.5044 90.2868C-106.64 64.3663 -97.6234 21.4277 -86.2325 -11.5062C-75.7777 -41.7334 -40.7153 -56.0828 -22.6197 -82.8543C-0.67041 -115.327 -8.526 -174.273 30.6231 -184.388C70.3737 -194.658 93.8442 -135.277 132.94 -123.047C168.974 -111.774 211.677 -135.9 244.321 -117.537C279.438 -97.7833 304.036 -61.0478 311.132 -22.8098C318.271 15.6523 299.907 53.3487 282.619 88.8102C265.635 123.647 249.545 164.843 212.363 179.783C175.602 194.554 133.529 177.437 96.4018 163.633Z" stroke="white"/>
</svg>
