<svg width="115" height="199" viewBox="0 0 115 199" fill="none" xmlns="http://www.w3.org/2000/svg">
<path fill-rule="evenodd" clip-rule="evenodd" d="M-11.0113 2.25277C11.5837 -4.24256 33.2846 16.0196 52.8337 28.5297C71.3578 40.384 92.631 52.6344 99.2474 72.8115C105.745 92.626 84.784 112.253 87.0531 132.884C89.7286 157.209 118.83 176.72 113.304 200.614C107.953 223.75 82.3672 238.186 60.1533 249.201C38.3904 259.993 13.4004 265.006 -11.0113 262.259C-34.1615 259.654 -55.098 248.302 -73.0087 234.218C-89.2093 221.478 -95.5615 201.765 -108.199 185.835C-122.842 167.377 -149.907 155.704 -153.398 132.884C-156.878 110.142 -144.946 84.5874 -125.875 70.3024C-107.016 56.1759 -76.1503 71.8276 -55.7577 59.7463C-34.0474 46.8843 -35.5328 9.30191 -11.0113 2.25277Z" stroke="white"/>
</svg>
